<?xml version="1.0" encoding="utf-8"?>
<!-- Generator: Adobe Illustrator 23.0.1, SVG Export Plug-In . SVG Version: 6.00 Build 0)  -->
<svg version="1.1"
	 id="svg3476" xmlns:cc="http://creativecommons.org/ns#" xmlns:dc="http://purl.org/dc/elements/1.1/" xmlns:inkscape="http://www.inkscape.org/namespaces/inkscape" xmlns:rdf="http://www.w3.org/1999/02/22-rdf-syntax-ns#" xmlns:sodipodi="http://sodipodi.sourceforge.net/DTD/sodipodi-0.dtd" xmlns:svg="http://www.w3.org/2000/svg"
	 xmlns="http://www.w3.org/2000/svg" xmlns:xlink="http://www.w3.org/1999/xlink" x="0px" y="0px" viewBox="0 0 290.2 338.6"
	 style="enable-background:new 0 0 290.2 338.6;" xml:space="preserve">
<style type="text/css">
	.st0{fill:#6C757D;}
	.st1{fill:#9DAEBA;}
	.st2{fill:#DAE8EF;}
</style>
<sodipodi:namedview  bordercolor="#666666" borderopacity="1.0" fit-margin-bottom="0" fit-margin-left="0" fit-margin-right="0" fit-margin-top="0" id="base" inkscape:current-layer="layer1" inkscape:cx="181.367" inkscape:cy="256" inkscape:document-units="px" inkscape:pageopacity="0.0" inkscape:pageshadow="2" inkscape:window-height="704" inkscape:window-maximized="1" inkscape:window-width="1366" inkscape:window-x="0" inkscape:window-y="27" inkscape:zoom="0.35" pagecolor="#ffffff" showgrid="false">
	</sodipodi:namedview>
<polygon id="polygon2989" class="st0" points="290.2,9.5 263.8,305.7 144.9,338.6 26.4,305.7 0,9.5 "/>
<polygon id="polygon2991" class="st1" points="241.1,286.8 263.7,33.7 145.1,33.7 145.1,313.4 "/>
<polygon id="polygon2993" class="st2" points="60.5,143.6 63.8,179.9 145.1,179.9 145.1,143.6 "/>
<polygon id="polygon2995" class="st2" points="145.1,70 145,70 54,70 57.3,106.4 145.1,106.4 "/>
<polygon id="polygon2997" class="st2" points="145.1,275.7 145.1,237.9 144.9,238 104.5,227 101.9,198.1 82.2,198.1 65.4,198.1 
	70.5,255.1 144.9,275.8 "/>
<polygon id="polygon3005" class="st2" points="189.7,179.9 185.5,227 145,238 145,275.7 219.4,255.1 220,249 228.5,153.3 
	229.4,143.6 236,70 145,70 145,106.4 196.2,106.4 192.9,143.6 145,143.6 145,179.9 "/>
</svg>
