<svg id="Capa_1" data-name="Capa 1" xmlns="http://www.w3.org/2000/svg" viewBox="0 0 312 357.68"><defs><style>.cls-1{fill:none;}.cls-2{fill:#949396;}.cls-3{fill:#949398;}.cls-4{fill:#f5df4e;}</style></defs><title>dr-logo</title><path class="cls-1" d="M171.18,72.3a40.06,40.06,0,0,0-17.84-11.47c-7.44-2.44-16.64-3.67-27.34-3.67H94.65V196.25H130c19.09,0,33.06-5.91,41.53-17.58,8.67-12,13.07-30.33,13.07-54.62,0-12.1-1.09-22.59-3.23-31.2C179.25,84.48,175.83,77.57,171.18,72.3Z" transform="translate(-44 -23.32)"/><path class="cls-1" d="M176.14,182C166.53,195.25,151,202,130,202H88.94V51.45H126c11.31,0,21.11,1.33,29.12,4a45.7,45.7,0,0,1,20.35,13.11c5.26,6,9.1,13.69,11.42,23,2.26,9.06,3.41,20,3.41,32.58C190.3,149.57,185.53,169.07,176.14,182Z" transform="translate(-44 -23.32)"/><path class="cls-2" d="M171.51,178.67C163,190.34,149.07,196.25,130,196.25H94.65V57.16H126c10.7,0,19.9,1.23,27.34,3.67A40.06,40.06,0,0,1,171.18,72.3c4.65,5.27,8.07,12.18,10.17,20.55,2.14,8.61,3.23,19.1,3.23,31.2C184.58,148.34,180.18,166.71,171.51,178.67Z" transform="translate(-44 -23.32)"/><path class="cls-1" d="M176,375.29h39.23V289h52.29c14.23,0,23.83,2.48,29.33,7.57s8.26,13.43,8.26,24.82v53.92H344.3V315.54c0-12.26-1.9-21.49-5.66-27.44s-10.11-10.24-19.1-13.13l-8-2.58,7.94-2.84a42.75,42.75,0,0,0,22.8-18.28c5.3-8.71,8-18.91,8-30.31a64.71,64.71,0,0,0-4.58-24.4,55,55,0,0,0-13-19.32m-27.89,71.07c-5.67,6.16-15.27,9.29-28.52,9.29H215.19V192.69h62.72c12.38,0,21.47,3.13,27,9.3s8.25,13.94,8.25,23.32C313.2,234.48,310.36,242.22,304.76,248.31Z" transform="translate(-44 -23.32)"/><path class="cls-1" d="M277.94,198.39h-57v53.5h55.36c11.6,0,19.79-2.5,24.33-7.44s6.94-11.33,6.94-19.14c0-8-2.22-14.42-6.79-19.5C296.31,200.89,288.64,198.39,277.94,198.39Z" transform="translate(-44 -23.32)"/><path class="cls-1" d="M176,375.29h39.23V289h52.29c14.23,0,23.83,2.48,29.33,7.57s8.26,13.43,8.26,24.82v53.92H344.3V315.54c0-12.26-1.9-21.49-5.66-27.44s-10.11-10.24-19.1-13.13l-8-2.58,7.94-2.84a42.75,42.75,0,0,0,22.8-18.28c5.3-8.71,8-18.91,8-30.31a64.71,64.71,0,0,0-4.58-24.4,55,55,0,0,0-13-19.32Z" transform="translate(-44 -23.32)"/><path d="M319.19,161.5a70.26,70.26,0,0,1,8.77,4.92A70.26,70.26,0,0,0,319.19,161.5Z" transform="translate(-44 -23.32)"/><path d="M334.52,171.35l-.84-.7Z" transform="translate(-44 -23.32)"/><path d="M332.34,169.56l-1.12-.85Z" transform="translate(-44 -23.32)"/><path d="M330.12,167.9c-.45-.32-.9-.64-1.36-1C329.22,167.26,329.68,167.58,330.12,167.9Z" transform="translate(-44 -23.32)"/><path class="cls-1" d="M315.54,159.89l-.38-.16.38.16Z" transform="translate(-44 -23.32)"/><path class="cls-3" d="M327.77,272.2a47.79,47.79,0,0,0,19.32-17.84c5.91-9.61,8.91-20.81,8.91-33.27a70.41,70.41,0,0,0-4.33-24.67l-.54-1.88a60.53,60.53,0,0,0-14.49-21.29c.23.22.45.45.68.68l.06-.05L211.15,47.65,200.6,37.1a94,94,0,0,0-21.85-13.78l24.37,24c1.33,1.37,2.6,2.79,3.84,4.26a98.8,98.8,0,0,1,16.56,28.52c4.93,12.85,7.42,27.65,7.42,44s-2.23,31.5-6.64,44.94a100.94,100.94,0,0,1-18.81,34.44,84.84,84.84,0,0,1-29.14,22.09,88.58,88.58,0,0,1-37.51,7.84H44v5.71L170.26,365.28,176,371h0l4.5,4.3,5.72,5.71H220.9V294.69h46.58c12.55,0,21.11,2,25.44,6s6.44,10.91,6.44,20.66V381H350V315.59c0-13.35-2.22-23.61-6.6-30.48C340,279.74,334.73,275.41,327.77,272.2Z" transform="translate(-44 -23.32)"/><path class="cls-4" d="M300.59,237.32c-4.54,4.93-12.73,7.44-24.33,7.44H220.9v-53.5h57c10.7,0,18.37,2.5,22.8,7.42,4.57,5.08,6.79,11.46,6.79,19.5C307.53,226,305.26,232.24,300.59,237.32Z" transform="translate(-44 -23.32)"/></svg>