<?xml version="1.0" encoding="utf-8"?>
<!-- Generator: Adobe Illustrator 23.0.1, SVG Export Plug-In . SVG Version: 6.00 Build 0)  -->
<svg version="1.1" id="Layer_1" xmlns="http://www.w3.org/2000/svg" xmlns:xlink="http://www.w3.org/1999/xlink" x="0px" y="0px"
	 viewBox="0 0 97 97" style="enable-background:new 0 0 97 97;" xml:space="preserve">
<style type="text/css">
	.st0{fill:#6C757D;}
</style>
<g>
	<path class="st0" d="M92.71,44.41L52.59,4.29c-2.31-2.31-6.06-2.31-8.37,0l-8.33,8.33l10.57,10.57c2.46-0.83,5.27-0.27,7.23,1.68
		c1.97,1.97,2.52,4.81,1.67,7.28l10.19,10.19c2.46-0.85,5.31-0.3,7.28,1.67c2.75,2.75,2.75,7.21,0,9.96c-2.75,2.75-7.21,2.75-9.96,0
		c-2.07-2.07-2.58-5.11-1.53-7.66l-9.5-9.5v25c0.67,0.33,1.3,0.77,1.86,1.33c2.75,2.75,2.75,7.21,0,9.96
		c-2.75,2.75-7.21,2.75-9.96,0c-2.75-2.75-2.75-7.21,0-9.96c0.68-0.68,1.47-1.19,2.31-1.54V36.37c-0.84-0.34-1.63-0.85-2.31-1.54
		c-2.08-2.08-2.58-5.14-1.52-7.7L31.8,16.72L4.29,44.22c-2.31,2.31-2.31,6.06,0,8.37l40.12,40.12c2.31,2.31,6.06,2.31,8.37,0
		l39.93-39.93C95.02,50.47,95.02,46.72,92.71,44.41z"/>
</g>
</svg>
