<?xml version="1.0" encoding="utf-8"?>
<!-- Generator: Adobe Illustrator 23.0.1, SVG Export Plug-In . SVG Version: 6.00 Build 0)  -->
<svg version="1.1" id="Capa_1" xmlns="http://www.w3.org/2000/svg" xmlns:xlink="http://www.w3.org/1999/xlink" x="0px" y="0px"
	 viewBox="0 0 120 71.29" style="enable-background:new 0 0 120 71.29;" xml:space="preserve">
<style type="text/css">
	.st0{fill:#6C757D;}
	.st1{fill:#96A1AA;}
</style>
<g>
	<path class="st0" d="M88.32,50.15l3.47-8.77h10.01l-4.75-13.3l5.94-15.02L120,58.24h-12.55l-2.91-8.09H88.32z"/>
	<path class="st1" d="M77.61,58.24l18.22-45.18l-12.08,0l-12.46,29.2l-8.86-29.2h-9.28l-9.51,29.2l-6.71-13.3l-6.07,18.71
		l6.16,10.58H48.9l8.6-26.18l8.2,26.18H77.61z"/>
	<path class="st0" d="M11.46,42.73h7.44c2.25,0,4.26-0.25,6.02-0.75l1.92-5.93l5.38-16.56c-0.41-0.65-0.88-1.26-1.4-1.84
		c-2.76-3.06-6.8-4.58-12.12-4.58H0v45.18h11.46V42.73z M21.31,23.45c1.08,1.09,1.62,2.54,1.62,4.36c0,1.83-0.47,3.29-1.42,4.36
		c-1.04,1.19-2.95,1.79-5.74,1.79h-4.3V21.82h4.33C18.39,21.82,20.23,22.37,21.31,23.45z"/>
</g>
</svg>
