<?xml version="1.0" encoding="utf-8"?>
<!-- Generator: Adobe Illustrator 23.0.1, SVG Export Plug-In . SVG Version: 6.00 Build 0)  -->
<svg version="1.1" id="Capa_1" xmlns="http://www.w3.org/2000/svg" xmlns:xlink="http://www.w3.org/1999/xlink" x="0px" y="0px"
	 viewBox="0 0 333.29 400" style="enable-background:new 0 0 333.29 400;" xml:space="preserve">
<style type="text/css">
	.st0{fill:#6C757D;}
</style>
<g>
	<path class="st0" d="M317.28,174.3c13.19-21.9,17.16-45.97,13.65-70.84C319.02,19.02,219.1-26.69,147.35,19.12
		c-29.75,18.99-59.5,37.97-89.18,57.07C8.88,107.89-7.52,163.64,16.8,216.93c1.39,3.05,1.21,5.23-0.51,8.03
		C5.83,241.84,1.32,260.41,1.14,281.81c0.45,5.28,0.55,12.21,1.85,19.13c15.57,82.61,112.21,124.75,183.03,79.74
		c29.97-19.05,59.93-38.12,89.88-57.22c47.45-30.26,64.45-87.77,40.81-138.74C314.88,180.74,315.07,177.97,317.28,174.3z M282,138.8
		c-1.28,3.9-2,4.72-5.51,2.09c-11.05-8.29-23.27-14.45-36.46-18.57c-2.79-0.87-3.55-1.98-3.65-5.1
		c-0.59-19.19-18.79-28.96-34.97-18.74c-29.82,18.85-59.53,37.88-89.23,56.92c-10.98,7.04-13.87,18.06-7.74,28.37
		c6.08,10.22,19.38,13.78,30.09,7.4c11.77-7,23.15-14.67,34.75-21.98c40.61-25.58,94.54-5.42,108.65,40.58
		c8.52,27.79-1.36,57.21-25.48,72.98c-31.8,20.77-63.79,41.26-96.11,61.2c-26.07,16.09-59.59,12.47-83.54-7.88
		c-23.27-19.77-31.45-50.98-20.36-79.5c12.71,9.65,26.1,16.89,40.82,21.38c2.86,0.87,3.12,2.2,3.22,4.73
		c0.83,20.09,18.7,29.44,35.69,18.64c29.39-18.69,58.74-37.46,88.07-56.25c10.95-7.02,14.09-18.3,8.06-28.31
		c-6.22-10.32-19.25-13.92-30.04-7.57c-11.61,6.82-22.84,14.32-34.22,21.54c-46.12,29.29-107.28-0.49-111.81-54.98
		c-2-24.11,7.25-44.5,27.64-58c32.03-21.22,64.5-41.8,97.25-61.92c25.37-15.59,58.26-12.16,81.93,7.26
		C282.15,82.01,290.96,111.54,282,138.8z"/>
</g>
</svg>
