<?xml version="1.0" encoding="utf-8"?>
<!-- Generator: Adobe Illustrator 23.0.1, SVG Export Plug-In . SVG Version: 6.00 Build 0)  -->
<svg version="1.1" id="Capa_1" xmlns="http://www.w3.org/2000/svg" xmlns:xlink="http://www.w3.org/1999/xlink" x="0px" y="0px"
	 viewBox="0 0 50 50" style="enable-background:new 0 0 50 50;" xml:space="preserve">
<style type="text/css">
	.st0{fill:#6C757D;}
</style>
<path class="st0" d="M25,0C11.19,0,0,11.19,0,25s11.19,25,25,25s25-11.19,25-25S38.81,0,25,0z M11.6,27.91
	c0,3.07-1.69,4.45-4.74,4.45c-3.01,0-4.74-1.38-4.74-4.45V17.64h3.91v10.08c0,0.67,0.04,1.19,0.84,1.19S7.7,28.4,7.7,27.73V17.64
	h3.91V27.91z M12.22,17.64h3.96V32.1h-3.96V17.64z M19.12,36.09l-3.04-1.31L24.63,15l3.04,1.31L19.12,36.09z M42.51,28.4l-1.12,3.7
	h-4.26l2.88-7.44l-2.57-6.54v9.8c0,3.07-1.69,4.45-4.74,4.45c-3.01,0-4.74-1.38-4.74-4.45V17.64h3.91v10.08
	c0,0.67,0.04,1.19,0.84,1.19c0.8,0,0.84-0.52,0.84-1.19V17.64h3.72h0.19h3.98l1.08,3.55l1.08-3.55h4.17L45,24.66l2.88,7.44h-4.26
	L42.51,28.4z"/>
</svg>
