<?xml version="1.0" encoding="utf-8"?>
<!-- Generator: Adobe Illustrator 23.0.1, SVG Export Plug-In . SVG Version: 6.00 Build 0)  -->
<svg version="1.1" id="Layer_1" xmlns="http://www.w3.org/2000/svg" xmlns:xlink="http://www.w3.org/1999/xlink" x="0px" y="0px"
	 viewBox="0 0 50 48.75" style="enable-background:new 0 0 50 48.75;" xml:space="preserve">
<style type="text/css">
	.st0{fill:#6C757D;}
</style>
<g>
	<path class="st0" d="M41.15,0H8.85C3.96,0,0,3.96,0,8.85V39.9c0,4.9,3.96,8.85,8.85,8.85h32.29c4.9,0,8.85-3.96,8.85-8.85V8.85
		C50,3.96,46.04,0,41.15,0z M26.75,34.31c-0.02,0.08-0.1,0.02-0.23,0.04h-4.77c-0.33,0-0.56-0.02-0.71-0.23
		c-0.44-0.88-0.9-1.73-1.33-2.6c-0.44-0.85-0.92-1.73-1.42-2.63c-0.5-0.9-1-1.79-1.5-2.71h-0.04c-0.44,0.9-0.92,1.79-1.4,2.69
		c-0.48,0.9-0.96,1.79-1.42,2.67c-0.48,0.88-0.96,1.77-1.44,2.63c-0.08,0.21-0.25,0.23-0.48,0.23H7.44c-0.08,0-0.15,0.04-0.15-0.06
		c-0.02-0.08,0-0.17,0.04-0.23l6.48-10.63L7.5,12.79c-0.06-0.08-0.08-0.17-0.04-0.21c0.04-0.06,0.13-0.08,0.21-0.08h4.73
		c0.1,0,0.21,0.02,0.29,0.04c0.08,0.04,0.15,0.1,0.21,0.19c0.4,0.9,0.85,1.79,1.33,2.69c0.5,0.9,0.98,1.77,1.5,2.65
		c0.5,0.87,0.96,1.75,1.4,2.65h0.04c0.44-0.92,0.9-1.81,1.35-2.69c0.46-0.88,0.94-1.75,1.42-2.63c0.48-0.87,0.94-1.77,1.4-2.62
		c0.02-0.08,0.06-0.17,0.12-0.21c0.08-0.04,0.17-0.06,0.27-0.04h4.4c0.1-0.02,0.21,0.04,0.23,0.15c0.02,0.02-0.02,0.1-0.06,0.15
		l-6.25,10.31l6.67,10.94C26.75,34.15,26.77,34.23,26.75,34.31z M42.52,33.5c-1.08,0.46-2.23,0.79-3.4,1
		c-1.06,0.19-2.12,0.29-3.21,0.29c-1.54,0.02-3.08-0.29-4.48-0.94c-1.31-0.6-2.4-1.6-3.15-2.83c-0.77-1.27-1.15-2.85-1.15-4.75
		c-0.02-1.54,0.37-3.06,1.15-4.4c0.79-1.35,1.94-2.48,3.31-3.23c1.46-0.81,3.21-1.21,5.27-1.21c0.1,0,0.25,0,0.44,0.02
		c0.19,0.02,0.4,0.02,0.65,0.04v-6.58c0-0.15,0.06-0.23,0.21-0.23h4.23c0.1-0.02,0.19,0.06,0.21,0.15c0,0.02,0,0.04,0,0.04v19.83
		c0,0.38,0.02,0.79,0.04,1.25c0.04,0.44,0.06,0.85,0.08,1.21C42.73,33.31,42.67,33.44,42.52,33.5z"/>
	<path class="st0" d="M36.71,21.31c-0.81,0-1.62,0.17-2.35,0.54c-0.71,0.35-1.31,0.87-1.77,1.54c-0.46,0.67-0.69,1.56-0.69,2.65
		c-0.02,0.73,0.1,1.46,0.35,2.15c0.21,0.56,0.52,1.06,0.94,1.48c0.4,0.37,0.88,0.67,1.42,0.83c0.56,0.19,1.15,0.27,1.73,0.27
		c0.31,0,0.6-0.02,0.87-0.04c0.27,0.02,0.5-0.02,0.75-0.1v-9.17c-0.19-0.04-0.37-0.08-0.56-0.1C37.17,21.33,36.94,21.31,36.71,21.31
		z"/>
</g>
</svg>
